<svg xmlns="http://www.w3.org/2000/svg" viewBox="0 0 57 57" fill="none" class="h-32 w-32 sm:h-auto sm:w-auto">
  <path fill-rule="evenodd" clip-rule="evenodd"
    d="M20.1997 3.47949C20.752 3.47949 21.1997 3.92721 21.1997 4.47949L21.1997 14.4795H35.1998V4.47949C35.1998 3.92721 35.6475 3.47949 36.1998 3.47949C36.7521 3.47949 37.1998 3.92721 37.1998 4.47949V14.4795H42.3198C43.4236 14.486 44.4804 14.9245 45.2609 15.7C46.0414 16.4754 46.4828 17.5252 46.4894 18.6218L46.4811 27.6687C46.6061 29.3311 46.7785 34.4455 43.4067 39.3583C41.665 41.8424 39.3322 43.8602 36.6159 45.2321C34.0946 46.4972 31.5472 47.0202 29.1997 47.1255V53.4795C29.1997 54.0318 28.752 54.4795 28.1997 54.4795C27.6474 54.4795 27.1997 54.0318 27.1997 53.4795V47.119C23.0719 46.9119 19.8709 45.5797 19.0676 45.2321C12.9773 42.1005 9.70005 36.9751 9.19971 30.0933V18.6218C9.20627 17.5252 9.64767 16.4754 10.4282 15.7C11.2087 14.9245 12.2654 14.486 13.3693 14.4795H19.1997L19.1997 4.47949C19.1997 3.92721 19.6474 3.47949 20.1997 3.47949ZM37.1998 16.4795H35.1998H21.1997H19.1997H13.3761C12.7962 16.4842 12.244 16.7152 11.8378 17.1188C11.432 17.5219 11.2044 18.0645 11.1997 18.6288V30.0191C11.6665 36.1729 14.5355 40.6309 19.9228 43.4228C21.396 44.0536 28.7312 46.9492 35.7166 43.4457C38.1358 42.2233 40.2125 40.4273 41.7633 38.2183C44.7437 33.8699 44.5996 29.3196 44.4867 27.8187L44.481 27.7429L44.4811 27.6668L44.4894 18.6281C44.4845 18.064 44.2569 17.5217 43.8513 17.1188C43.4451 16.7152 42.8928 16.4842 42.313 16.4795H37.1998Z"
    fill="#00619E" />
  <path fill-rule="evenodd" clip-rule="evenodd"
    d="M26.8628 21.4795C26.6651 21.4795 26.4528 21.5385 26.2896 21.7011C26.1263 21.8639 26.0668 22.0763 26.0668 22.2744V23.9646C24.1728 24.535 23.1997 26.08 23.1997 27.6312C23.1997 28.8338 23.7041 29.7025 24.4344 30.3646C25.145 31.0089 26.0771 31.4639 26.9448 31.8682L26.9467 31.869C27.5585 32.1506 27.9951 32.3947 28.2759 32.6364C28.5456 32.8686 28.6301 33.0608 28.6301 33.2529C28.6301 33.5226 28.3636 33.8587 27.7362 33.8587C26.7257 33.8587 25.8741 33.3097 25.4084 32.9755C25.2189 32.8385 24.9833 32.7736 24.7473 32.8146C24.5064 32.8563 24.299 33.003 24.1706 33.2223L23.3693 34.6486L23.3659 34.655C23.2644 34.8429 23.2166 35.046 23.258 35.2526C23.2982 35.453 23.4098 35.5929 23.4985 35.6812L23.5055 35.6879C23.9637 36.1249 24.8158 36.6692 26.0668 36.9581V38.6286C26.0668 38.8267 26.1263 39.039 26.2896 39.2018C26.4528 39.3645 26.6651 39.4235 26.8628 39.4235H28.6666C28.8643 39.4235 29.0766 39.3645 29.2397 39.2018C29.403 39.039 29.4626 38.8267 29.4626 38.6286V36.9202C31.3777 36.3483 32.5576 34.745 32.5576 33.1015C32.5576 31.7665 31.9687 30.8475 31.1761 30.1781C30.475 29.5861 29.5988 29.178 28.8539 28.8311C28.7821 28.7976 28.7116 28.7648 28.6426 28.7325L28.6404 28.7314C27.9844 28.4281 27.5209 28.185 27.2234 27.9589C26.9257 27.7327 26.8803 27.5898 26.8803 27.4987C26.8803 27.3612 26.9286 27.2464 27.0206 27.1627C27.1139 27.0777 27.2941 26.9875 27.6223 26.9875C28.0162 26.9875 28.4578 27.1249 28.8722 27.3147C29.2806 27.5017 29.6285 27.7237 29.827 27.8587L29.8307 27.8612C30.1032 28.0423 30.3949 28.0809 30.6565 28.0077C30.9021 27.939 31.0909 27.781 31.2065 27.6164L32.1017 26.2683C32.1955 26.1342 32.2683 25.9443 32.2469 25.7267C32.224 25.4923 32.0972 25.2841 31.8929 25.1275C31.3408 24.7055 30.498 24.2225 29.4626 23.9399V22.2744C29.4626 22.0763 29.403 21.8639 29.2397 21.7011C29.0766 21.5385 28.8643 21.4795 28.6666 21.4795H26.8628Z"
    fill="#00AED9" />
</svg>