<svg viewBox="0 0 30 51" fill="#fff" xmlns="http://www.w3.org/2000/svg" class="h-32 w-32 sm:h-auto sm:w-auto">
  <path
    d="M28.8112 14.2246L29.7168 13.8005V13.8005L28.8112 14.2246ZM23.3916 2.65225L22.486 3.07637V3.07637L23.3916 2.65225ZM6.72603 2.63855L7.62839 3.06952V3.06952L6.72603 2.63855ZM1.19527 14.2189L0.292902 13.7879L0.292901 13.7879L1.19527 14.2189ZM27 48.5005H3V50.5005H27V48.5005ZM28 47.5005C28 48.0528 27.5523 48.5005 27 48.5005V50.5005C28.6569 50.5005 30 49.1573 30 47.5005H28ZM28 15.0728L28 47.5005H30L30 15.0728H28ZM27.9056 14.6487C27.9678 14.7815 28 14.9263 28 15.0728H30C30 14.6331 29.9033 14.1987 29.7168 13.8005L27.9056 14.6487ZM22.486 3.07637L27.9056 14.6487L29.7168 13.8005L24.2972 2.22813L22.486 3.07637ZM21.5804 2.50049C21.9684 2.50049 22.3214 2.72496 22.486 3.07637L24.2972 2.22813C23.8035 1.17392 22.7445 0.500488 21.5804 0.500488V2.50049ZM8.53076 2.50049L21.5804 2.50049V0.500488L8.53076 0.500488V2.50049ZM7.62839 3.06952C7.79444 2.72184 8.14547 2.50049 8.53076 2.50049V0.500488C7.37488 0.500488 6.32181 1.16455 5.82366 2.20758L7.62839 3.06952ZM2.09763 14.6498L7.62839 3.06952L5.82366 2.20758L0.292902 13.7879L2.09763 14.6498ZM2 15.0808C2 14.9317 2.03336 14.7844 2.09763 14.6498L0.292901 13.7879C0.100077 14.1916 0 14.6334 0 15.0808H2ZM2 47.5005L2 15.0808H0L0 47.5005H2ZM3 48.5005C2.44771 48.5005 2 48.0528 2 47.5005H0C0 49.1573 1.34315 50.5005 3 50.5005V48.5005ZM18 12.5005C18 14.1573 16.6569 15.5005 15 15.5005V17.5005C17.7614 17.5005 20 15.2619 20 12.5005H18ZM15 9.50049C16.6569 9.50049 18 10.8436 18 12.5005H20C20 9.73906 17.7614 7.50049 15 7.50049V9.50049ZM12 12.5005C12 10.8436 13.3431 9.50049 15 9.50049V7.50049C12.2386 7.50049 10 9.73906 10 12.5005H12ZM15 15.5005C13.3431 15.5005 12 14.1573 12 12.5005H10C10 15.2619 12.2386 17.5005 15 17.5005V15.5005Z"
    fill="#00619E" />
  <path
    d="M9.07514 27.5661L9.07529 27.5659C9.77436 26.879 10.7014 26.5005 11.6992 26.5005C12.6864 26.5005 13.608 26.8731 14.3027 27.5474L14.9982 28.2226L15.6947 27.5484C17.1421 26.1474 19.4876 26.1535 20.924 27.565L20.9242 27.5652C22.3552 28.9708 22.3584 31.2491 20.9347 32.6579L14.9944 38.1393L9.06512 32.6601C7.64132 31.2493 7.64527 28.9705 9.07514 27.5661Z"
    stroke="#00AED9" stroke-width="2" />
</svg>