<svg viewBox="0 0 175 37" fill="none" xmlns="http://www.w3.org/2000/svg" class="h-[18px] min-w-[85px] s:mr-16 l:h-full l:w-[144px]"><path d="M36.4248 0C37.0479 0 37.4706 0.62069 37.2322 1.18417L23.2956 34.0092C22.6608 35.5052 21.182 36.4691 19.5277 36.4691C17.8734 36.4691 16.3946 35.5037 15.7598 34.0092L9.07384 18.2632C8.92465 17.9113 8.41563 17.9113 8.26643 18.2632L6.25084 23.0099C6.02559 23.5419 5.49463 23.888 4.90516 23.888H0.875437C0.252329 23.888 -0.171852 23.2673 0.0680295 22.7038L4.90224 11.324C5.53558 9.8295 7.01437 8.86414 8.66868 8.86414C9.49656 8.86414 10.2806 9.1044 10.9359 9.53345C11.5911 9.9625 12.1192 10.5775 12.4366 11.324L19.1226 27.0687C19.2717 27.4205 19.7808 27.4205 19.93 27.0687L31.0508 0.878119C31.2761 0.346099 31.807 0 32.3965 0H36.4248Z" fill="#228BE6"/><path d="M36.4248 0C37.0479 0 37.4706 0.62069 37.2322 1.18417L23.2956 34.0092C22.6608 35.5052 21.182 36.4691 19.5277 36.4691C17.8734 36.4691 16.3946 35.5037 15.7598 34.0092L9.07384 18.2632C8.92465 17.9113 8.41563 17.9113 8.26643 18.2632L6.25084 23.0099C6.02559 23.5419 5.49463 23.888 4.90516 23.888H0.875437C0.252329 23.888 -0.171852 23.2673 0.0680295 22.7038L4.90224 11.324C5.53558 9.8295 7.01437 8.86414 8.66868 8.86414C9.49656 8.86414 10.2806 9.1044 10.9359 9.53345C11.5911 9.9625 12.1192 10.5775 12.4366 11.324L19.1226 27.0687C19.2717 27.4205 19.7808 27.4205 19.93 27.0687L31.0508 0.878119C31.2761 0.346099 31.807 0 32.3965 0H36.4248Z" fill="url(#paint0_linear_10044_14941)"/><path d="M46.2462 18.4854L50.4625 31.2369H50.6286L54.8369 18.4854H58.0644L52.3531 34.6859H48.7301L43.0267 18.4854H46.2462Z" fill="white"/><path d="M60.895 34.9311C60.125 34.9311 59.4315 34.794 58.8145 34.5198C58.2028 34.2403 57.7176 33.8289 57.359 33.2857C57.0057 32.7426 56.829 32.0728 56.829 31.2765C56.829 30.5909 56.9556 30.024 57.2087 29.5758C57.4618 29.1275 57.8073 28.7689 58.245 28.4999C58.6827 28.231 59.1758 28.0279 59.7242 27.8908C60.2779 27.7484 60.8501 27.6456 61.4408 27.5823C62.1527 27.5085 62.7302 27.4426 63.1732 27.3846C63.6161 27.3213 63.9378 27.2264 64.1382 27.0998C64.3439 26.968 64.4467 26.7649 64.4467 26.4907V26.4432C64.4467 25.8473 64.2701 25.3859 63.9167 25.0589C63.5634 24.7319 63.0545 24.5685 62.39 24.5685C61.6886 24.5685 61.1323 24.7214 60.7209 25.0273C60.3149 25.3331 60.0406 25.6944 59.8982 26.111L57.2245 25.7313C57.4355 24.993 57.7835 24.376 58.2687 23.8803C58.7539 23.3793 59.3471 23.0048 60.0485 22.757C60.7499 22.5038 61.5252 22.3773 62.3742 22.3773C62.9596 22.3773 63.5423 22.4458 64.1224 22.5829C64.7025 22.7201 65.2325 22.9468 65.7124 23.2632C66.1923 23.5744 66.5773 23.9989 66.8673 24.5368C67.1626 25.0747 67.3103 25.7471 67.3103 26.554V34.6859H64.5575V33.0168H64.4625C64.2885 33.3543 64.0433 33.6707 63.7269 33.966C63.4157 34.2561 63.0229 34.4908 62.5482 34.6701C62.0789 34.8441 61.5278 34.9311 60.895 34.9311ZM61.6385 32.8269C62.2134 32.8269 62.7117 32.7135 63.1336 32.4868C63.5555 32.2547 63.8798 31.9489 64.1066 31.5692C64.3386 31.1895 64.4546 30.7755 64.4546 30.3272V28.8955C64.365 28.9693 64.2121 29.0378 63.9958 29.1011C63.7849 29.1644 63.5476 29.2198 63.2839 29.2672C63.0202 29.3147 62.7592 29.3569 62.5008 29.3938C62.2424 29.4307 62.0182 29.4624 61.8284 29.4887C61.4012 29.5467 61.0189 29.6417 60.6814 29.7735C60.3439 29.9054 60.0775 30.0899 59.8824 30.3272C59.6873 30.5593 59.5897 30.8599 59.5897 31.229C59.5897 31.7564 59.7822 32.1545 60.1672 32.4235C60.5522 32.6925 61.0426 32.8269 61.6385 32.8269Z" fill="white"/><path d="M72.1622 18.4854V34.6859H69.2987V18.4854H72.1622Z" fill="white"/><path d="M81.8488 29.5758V22.5355H84.7123V34.6859H81.9358V32.5263H81.8092C81.535 33.2066 81.0841 33.763 80.4565 34.1954C79.8342 34.6279 79.0669 34.8441 78.1546 34.8441C77.3583 34.8441 76.6543 34.6674 76.0425 34.3141C75.4361 33.9555 74.9614 33.436 74.6186 32.7557C74.2759 32.0702 74.1045 31.2422 74.1045 30.2719V22.5355H76.968V29.8289C76.968 30.5988 77.179 31.2106 77.6009 31.6641C78.0228 32.1176 78.5765 32.3444 79.2621 32.3444C79.684 32.3444 80.0927 32.2416 80.4882 32.0359C80.8837 31.8302 81.208 31.5243 81.4612 31.1183C81.7196 30.7069 81.8488 30.1928 81.8488 29.5758Z" fill="white"/><path d="M92.0337 34.9232C90.8155 34.9232 89.7634 34.6701 88.8774 34.1638C87.9967 33.6523 87.3191 32.9298 86.8444 31.9963C86.3698 31.0576 86.1325 29.9528 86.1325 28.6819C86.1325 27.432 86.3698 26.3351 86.8444 25.3911C87.3243 24.4419 87.9941 23.7036 88.8537 23.1762C89.7133 22.6436 90.7232 22.3773 91.8834 22.3773C92.6322 22.3773 93.3389 22.4986 94.0034 22.7412C94.6731 22.9785 95.2637 23.3476 95.7753 23.8486C96.2921 24.3496 96.6982 24.9877 96.9935 25.7629C97.2888 26.5329 97.4365 27.4505 97.4365 28.5158V29.3938H87.4773V27.4637H94.6916C94.6863 26.9152 94.5676 26.4274 94.3356 26.0002C94.1036 25.5678 93.7792 25.2277 93.3626 24.9798C92.9513 24.7319 92.4714 24.608 91.9229 24.608C91.3375 24.608 90.8234 24.7504 90.3804 25.0352C89.9374 25.3147 89.592 25.6838 89.3441 26.1426C89.1015 26.5962 88.9776 27.0945 88.9723 27.6377V29.3226C88.9723 30.0293 89.1015 30.6357 89.3599 31.142C89.6184 31.643 89.9796 32.028 90.4437 32.2969C90.9077 32.5606 91.4509 32.6925 92.0732 32.6925C92.4898 32.6925 92.8669 32.6344 93.2044 32.5184C93.5419 32.3971 93.8346 32.2205 94.0825 31.9884C94.3303 31.7564 94.5175 31.469 94.6441 31.1262L97.3178 31.4268C97.1491 32.1335 96.8274 32.7505 96.3527 33.2778C95.8834 33.7999 95.2822 34.206 94.5492 34.496C93.8161 34.7808 92.9776 34.9232 92.0337 34.9232Z" fill="white"/><path d="M100.789 20.9455V18.4854H113.715V20.9455H108.708V34.6859H105.797V20.9455H100.789Z" fill="white"/><path d="M112.739 34.6859V22.5355H115.515V24.5605H115.642C115.864 23.8592 116.243 23.3186 116.781 22.9389C117.324 22.5539 117.944 22.3615 118.64 22.3615C118.798 22.3615 118.975 22.3694 119.17 22.3852C119.37 22.3957 119.537 22.4142 119.668 22.4406V25.0747C119.547 25.0325 119.355 24.9956 119.091 24.964C118.833 24.9271 118.582 24.9086 118.34 24.9086C117.817 24.9086 117.348 25.022 116.931 25.2488C116.52 25.4702 116.196 25.7788 115.958 26.1743C115.721 26.5698 115.603 27.026 115.603 27.5428V34.6859H112.739Z" fill="white"/><path d="M124.399 34.9311C123.629 34.9311 122.936 34.794 122.319 34.5198C121.707 34.2403 121.222 33.8289 120.863 33.2857C120.51 32.7426 120.333 32.0728 120.333 31.2765C120.333 30.5909 120.46 30.024 120.713 29.5758C120.966 29.1275 121.311 28.7689 121.749 28.4999C122.187 28.231 122.68 28.0279 123.228 27.8908C123.782 27.7484 124.354 27.6456 124.945 27.5823C125.657 27.5085 126.234 27.4426 126.677 27.3846C127.12 27.3213 127.442 27.2264 127.642 27.0998C127.848 26.968 127.951 26.7649 127.951 26.4907V26.4432C127.951 25.8473 127.774 25.3859 127.421 25.0589C127.067 24.7319 126.559 24.5685 125.894 24.5685C125.193 24.5685 124.636 24.7214 124.225 25.0273C123.819 25.3331 123.545 25.6944 123.402 26.111L120.729 25.7313C120.94 24.993 121.288 24.376 121.773 23.8803C122.258 23.3793 122.851 23.0048 123.553 22.757C124.254 22.5038 125.029 22.3773 125.878 22.3773C126.464 22.3773 127.046 22.4458 127.626 22.5829C128.207 22.7201 128.737 22.9468 129.216 23.2632C129.696 23.5744 130.081 23.9989 130.371 24.5368C130.667 25.0747 130.814 25.7471 130.814 26.554V34.6859H128.062V33.0168H127.967C127.793 33.3543 127.547 33.6707 127.231 33.966C126.92 34.2561 126.527 34.4908 126.052 34.6701C125.583 34.8441 125.032 34.9311 124.399 34.9311ZM125.143 32.8269C125.717 32.8269 126.216 32.7135 126.638 32.4868C127.06 32.2547 127.384 31.9489 127.611 31.5692C127.843 31.1895 127.959 30.7755 127.959 30.3272V28.8955C127.869 28.9693 127.716 29.0378 127.5 29.1011C127.289 29.1644 127.052 29.2198 126.788 29.2672C126.524 29.3147 126.263 29.3569 126.005 29.3938C125.746 29.4307 125.522 29.4624 125.332 29.4887C124.905 29.5467 124.523 29.6417 124.185 29.7735C123.848 29.9054 123.582 30.0899 123.387 30.3272C123.191 30.5593 123.094 30.8599 123.094 31.229C123.094 31.7564 123.286 32.1545 123.671 32.4235C124.056 32.6925 124.547 32.8269 125.143 32.8269Z" fill="white"/><path d="M137.991 34.9232C136.778 34.9232 135.737 34.6569 134.867 34.1242C134.002 33.5916 133.335 32.8559 132.865 31.9172C132.401 30.9733 132.169 29.8869 132.169 28.6581C132.169 27.4241 132.407 26.3351 132.881 25.3911C133.356 24.4419 134.026 23.7036 134.89 23.1762C135.761 22.6436 136.789 22.3773 137.976 22.3773C138.962 22.3773 139.834 22.5592 140.594 22.9231C141.359 23.2817 141.968 23.7906 142.421 24.4498C142.875 25.1037 143.133 25.8684 143.196 26.7438H140.459C140.349 26.1585 140.085 25.6706 139.668 25.2804C139.257 24.8849 138.706 24.6871 138.015 24.6871C137.43 24.6871 136.916 24.8453 136.473 25.1617C136.03 25.4729 135.684 25.9211 135.436 26.5065C135.194 27.0919 135.072 27.7933 135.072 28.6107C135.072 29.4386 135.194 30.1506 135.436 30.7465C135.679 31.3371 136.019 31.7933 136.457 32.115C136.9 32.4314 137.419 32.5896 138.015 32.5896C138.437 32.5896 138.814 32.5105 139.146 32.3523C139.484 32.1888 139.766 31.9541 139.993 31.6483C140.219 31.3424 140.375 30.9706 140.459 30.5329H143.196C143.128 31.3925 142.875 32.1545 142.437 32.819C141.999 33.4782 141.403 33.995 140.649 34.3695C139.895 34.7386 139.009 34.9232 137.991 34.9232Z" fill="white"/><path d="M147.156 30.8731L147.148 27.4162H147.607L151.973 22.5355H155.319L149.948 28.5158H149.355L147.156 30.8731ZM144.545 34.6859V18.4854H147.409V34.6859H144.545ZM152.171 34.6859L148.216 29.1565L150.146 27.1393L155.596 34.6859H152.171Z" fill="white"/><path d="M161.048 34.9232C159.829 34.9232 158.777 34.6701 157.891 34.1638C157.011 33.6523 156.333 32.9298 155.858 31.9963C155.384 31.0576 155.146 29.9528 155.146 28.6819C155.146 27.432 155.384 26.3351 155.858 25.3911C156.338 24.4419 157.008 23.7036 157.868 23.1762C158.727 22.6436 159.737 22.3773 160.897 22.3773C161.646 22.3773 162.353 22.4986 163.017 22.7412C163.687 22.9785 164.278 23.3476 164.789 23.8486C165.306 24.3496 165.712 24.9877 166.007 25.7629C166.303 26.5329 166.45 27.4505 166.45 28.5158V29.3938H156.491V27.4637H163.705C163.7 26.9152 163.581 26.4274 163.349 26.0002C163.117 25.5678 162.793 25.2277 162.376 24.9798C161.965 24.7319 161.485 24.608 160.937 24.608C160.351 24.608 159.837 24.7504 159.394 25.0352C158.951 25.3147 158.606 25.6838 158.358 26.1426C158.115 26.5962 157.991 27.0945 157.986 27.6377V29.3226C157.986 30.0293 158.115 30.6357 158.374 31.142C158.632 31.643 158.993 32.028 159.458 32.2969C159.922 32.5606 160.465 32.6925 161.087 32.6925C161.504 32.6925 161.881 32.6344 162.218 32.5184C162.556 32.3971 162.848 32.2205 163.096 31.9884C163.344 31.7564 163.531 31.469 163.658 31.1262L166.332 31.4268C166.163 32.1335 165.841 32.7505 165.367 33.2778C164.897 33.7999 164.296 34.206 163.563 34.496C162.83 34.7808 161.991 34.9232 161.048 34.9232Z" fill="white"/><path d="M167.87 34.6859V22.5355H170.647V24.5605H170.774C170.995 23.8592 171.375 23.3186 171.913 22.9389C172.456 22.5539 173.076 22.3615 173.772 22.3615C173.93 22.3615 174.107 22.3694 174.302 22.3852C174.502 22.3957 174.668 22.4142 174.8 22.4406V25.0747C174.679 25.0325 174.486 24.9956 174.223 24.964C173.964 24.9271 173.714 24.9086 173.471 24.9086C172.949 24.9086 172.48 25.022 172.063 25.2488C171.652 25.4702 171.327 25.7788 171.09 26.1743C170.853 26.5698 170.734 27.026 170.734 27.5428V34.6859H167.87Z" fill="white"/><path d="M77.3803 10.4836L74.8049 3.90032H72.5712L72.699 4.20395L76.5138 13.4716H78.202L82.1377 3.90377H79.9454L77.3803 10.487V10.4836Z" fill="white"/><path d="M85.3282 3.8971L81.1646 13.4752H83.2429L84.9691 9.44524H84.9657L86.212 6.55041L87.334 9.24512L86.571 11.0082H88.0693L88.5975 12.278L89.0981 13.4752H91.2593L87.0889 3.8971H85.3282Z" fill="white"/><path d="M108.921 3.8971H107.164L102.997 13.4718H105.075L108.044 6.54351L109.163 9.23477L108.396 11.0082H109.901L110.43 12.278L110.934 13.4718H113.091L108.921 3.8971Z" fill="white"/><path d="M99.203 9.77303L94.6977 3.8971H92.899V13.4752H94.9083V7.4544L99.5586 13.4787H101.212V3.8971H99.1995V9.77303H99.203Z" fill="white"/><path d="M56.7323 3.89349L52.2373 13.4716H53.1729L57.0637 5.14597L59.2836 9.80047L58.7312 10.9839H59.8429L61.0201 13.4716H61.9143L57.4228 3.89349H56.7323Z" fill="white"/><path d="M50.3968 11.3773C50.0067 11.7775 49.5648 12.1053 49.0677 12.3744C48.5913 12.6297 48.0147 12.7643 47.3381 12.7643C46.796 12.7643 46.2989 12.6608 45.8397 12.4469C45.3737 12.2329 44.9767 11.9466 44.6314 11.5808C44.2896 11.2116 44.0238 10.7873 43.827 10.287C43.6371 9.79701 43.5405 9.27256 43.5405 8.71016V8.686C43.5405 8.12705 43.6371 7.6026 43.827 7.11265C44.0204 6.61925 44.2862 6.18796 44.628 5.82222C44.9663 5.45304 45.3633 5.16666 45.8225 4.95274C46.2816 4.74227 46.7788 4.63531 47.3242 4.63531C47.6867 4.63531 48.0147 4.66981 48.3013 4.73537C48.5947 4.80782 48.8605 4.90098 49.1022 5.01829C49.3473 5.13906 49.5717 5.27362 49.7651 5.42888C49.9687 5.5876 50.1655 5.75667 50.3485 5.92918L50.5073 6.081L51.1218 5.43924L50.9596 5.28742C50.7283 5.0735 50.497 4.88373 50.2656 4.70776C50.024 4.52835 49.7616 4.36963 49.4682 4.23162C49.1747 4.0936 48.8571 3.99009 48.5119 3.91074C48.1632 3.83138 47.7696 3.79688 47.3346 3.79688C46.6614 3.79688 46.0296 3.92799 45.4531 4.19366C44.88 4.45244 44.3863 4.81472 43.9686 5.26327C43.5543 5.71181 43.2298 6.22936 42.9985 6.82282C42.7672 7.41628 42.6532 8.04769 42.6532 8.7067V8.73086C42.6532 9.40367 42.7672 10.0385 42.9985 10.6285C43.2298 11.2186 43.5508 11.7327 43.9686 12.1777C44.3829 12.6159 44.88 12.9644 45.4462 13.2197C46.0193 13.4785 46.6372 13.6096 47.307 13.6096C47.7213 13.6096 48.1079 13.5648 48.4635 13.4785C48.8157 13.3923 49.1471 13.2784 49.4578 13.1369C49.7651 12.992 50.0481 12.8195 50.3071 12.6194C50.5591 12.4227 50.7939 12.2157 51.0183 11.9914L51.1771 11.8327L50.5487 11.2289L50.3934 11.3773H50.3968Z" fill="white"/><path d="M68.4249 9.44846C68.7115 9.4036 68.9807 9.3346 69.2362 9.23799C69.6022 9.09998 69.9301 8.91366 70.2063 8.68249C70.4825 8.44441 70.7035 8.15803 70.8519 7.83025C71.0038 7.49902 71.0798 7.12293 71.0798 6.71579V6.69164C71.0798 6.32935 71.0176 5.98777 70.8899 5.67379C70.7621 5.36326 70.5861 5.09413 70.3617 4.85261C70.0579 4.54553 69.6712 4.31781 69.212 4.15564C68.746 3.99693 68.2178 3.90032 67.6205 3.90032H63.6676V13.4785H64.5445V9.54507H67.4203L70.4169 13.4785H71.5251L68.4318 9.44846H68.4249ZM64.541 8.70664V4.756H67.5929C68.456 4.756 69.1016 4.94232 69.5435 5.28735C69.9854 5.63239 70.1994 6.08093 70.2029 6.70889V6.73304C70.2029 7.02287 70.1442 7.28165 70.0302 7.51972C69.9163 7.75434 69.7506 7.95791 69.5262 8.13388C69.2984 8.30985 69.0222 8.44786 68.6804 8.54792C68.3455 8.64453 67.9519 8.69974 67.5031 8.69974H64.5445L64.541 8.70664Z" fill="white"/><defs><linearGradient id="paint0_linear_10044_14941" x1="37.2385" y1="-6.71032" x2="16.7079" y2="44.7222" gradientUnits="userSpaceOnUse"><stop offset="0.042983" stop-color="#FFD53D"/><stop offset="0.234544" stop-color="#D8F5A2"/><stop offset="0.319461" stop-color="#96F5B6"/><stop offset="0.464394" stop-color="#3BC9DB"/><stop offset="0.636407" stop-color="#228BE6" stop-opacity="0.5"/><stop offset="0.821163" stop-color="#228BE6"/></linearGradient></defs></svg>