<svg xmlns="http://www.w3.org/2000/svg" viewBox="0 0 24 24" fill="currentColor"
  class="sc-82e99fe4-0 gWjAAX absolute -right-[3px] top-[1px] h-[42px] h-[50px] w-[42px] w-[50px] m:-right-[6px] m:-top-[9px] m:z-[1] m:h-[74px] m:w-[74px] l:-right-[3px] l:top-[3px]">
  <path fill-rule="evenodd" clip-rule="evenodd"
    d="M12 22C17.5228 22 22 17.5228 22 12C22 6.47715 17.5228 2 12 2C6.47715 2 2 6.47715 2 12C2 17.5228 6.47715 22 12 22ZM8.70711 7.29289C8.31658 6.90237 7.68342 6.90237 7.29289 7.29289C6.90237 7.68342 6.90237 8.31658 7.29289 8.70711L13.5858 15H10.4C9.84772 15 9.4 15.4477 9.4 16C9.4 16.5523 9.84772 17 10.4 17H16C16.5523 17 17 16.5523 17 16V15.9908V15.9817V15.9724V15.9632V15.954V15.9447V15.9354V15.9261V15.9168V15.9074V15.8981V15.8887V15.8793V15.8698V15.8604V15.8509V15.8414V15.8319V15.8224V15.8129V15.8033V15.7937V15.7841V15.7745V15.7649V15.7552V15.7455V15.7358V15.7261V15.7164V15.7066V15.6968V15.6871V15.6772V15.6674V15.6576V15.6477V15.6378V15.6279V15.618V15.6081V15.5981V15.5882V15.5782V15.5682V15.5582V15.5481V15.5381V15.528V15.5179V15.5078V15.4977V15.4876V15.4774V15.4672V15.457V15.4468V15.4366V15.4264V15.4161V15.4059V15.3956V15.3853V15.375V15.3646V15.3543V15.3439V15.3335V15.3231V15.3127V15.3023V15.2919V15.2814V15.2709V15.2605V15.25V15.2394V15.2289V15.2184V15.2078V15.1972V15.1867V15.1761V15.1654V15.1548V15.1442V15.1335V15.1228V15.1122V15.1015V15.0908V15.08V15.0693V15.0585V15.0478V15.037V15.0262V15.0154V15.0046V14.9938V14.9829V14.9721V14.9612V14.9503V14.9394V14.9285V14.9176V14.9067V14.8957V14.8848V14.8738V14.8628V14.8518V14.8408V14.8298V14.8188V14.8078V14.7967V14.7857V14.7746V14.7635V14.7524V14.7413V14.7302V14.7191V14.708V14.6968V14.6857V14.6745V14.6633V14.6521V14.6409V14.6297V14.6185V14.6073V14.596V14.5848V14.5735V14.5623V14.551V14.5397V14.5284V14.5171V14.5058V14.4945V14.4832V14.4718V14.4605V14.4491V14.4377V14.4264V14.415V14.4036V14.3922V14.3808V14.3694V14.3579V14.3465V14.3351V14.3236V14.3122V14.3007V14.2892V14.2777V14.2663V14.2548V14.2433V14.2317V14.2202V14.2087V14.1972V14.1856V14.1741V14.1625V14.151V14.1394V14.1278V14.1163V14.1047V14.0931V14.0815V14.0699V14.0583V14.0467V14.035V14.0234V14.0118V14.0001V13.9885V13.9769V13.9652V13.9535V13.9419V13.9302V13.9185V13.9068V13.8952V13.8835V13.8718V13.8601V13.8484V13.8367V13.825V13.8132V13.8015V13.7898V13.7781V13.7663V13.7546V13.7428V13.7311V13.7194V13.7076V13.6958V13.6841V13.6723V13.6606V13.6488V13.637V13.6252V13.6135V13.6017V13.5899V13.5781V13.5663V13.5545V13.5427V13.5309V13.5191V13.5073V13.4955V13.4837V13.4719V13.4601V13.4483V13.4365V13.4247V13.4129V13.401V13.3892V13.3774V13.3656V13.3538V13.3419V13.3301V13.3183V13.3065V13.2946V13.2828V13.271V13.2591V13.2473V13.2355V13.2237V13.2118V13.2V13.1882V13.1763V13.1645V13.1527V13.1409V13.129V13.1172V13.1054V13.0935V13.0817V13.0699V13.0581V13.0462V13.0344V13.0226V13.0108V12.999V12.9871V12.9753V12.9635V12.9517V12.9399V12.9281V12.9163V12.9045V12.8927V12.8809V12.8691V12.8573V12.8455V12.8337V12.8219V12.8101V12.7983V12.7865V12.7748V12.763V12.7512V12.7394V12.7277V12.7159V12.7042V12.6924V12.6806V12.6689V12.6572V12.6454V12.6337V12.6219V12.6102V12.5985V12.5868V12.575V12.5633V12.5516V12.5399V12.5282V12.5165V12.5048V12.4932V12.4815V12.4698V12.4581V12.4465V12.4348V12.4231V12.4115V12.3999V12.3882V12.3766V12.365V12.3533V12.3417V12.3301V12.3185V12.3069V12.2953V12.2837V12.2722V12.2606V12.249V12.2375V12.2259V12.2144V12.2028V12.1913V12.1798V12.1683V12.1567V12.1452V12.1337V12.1223V12.1108V12.0993V12.0878V12.0764V12.0649V12.0535V12.0421V12.0306V12.0192V12.0078V11.9964V11.985V11.9736V11.9623V11.9509V11.9395V11.9282V11.9168V11.9055V11.8942V11.8829V11.8716V11.8603V11.849V11.8377V11.8265V11.8152V11.804V11.7927V11.7815V11.7703V11.7591V11.7479V11.7367V11.7255V11.7143V11.7032V11.692V11.6809V11.6698V11.6587V11.6476V11.6365V11.6254V11.6143V11.6033V11.5922V11.5812V11.5702V11.5592V11.5482V11.5372V11.5262V11.5152V11.5043V11.4933V11.4824V11.4715V11.4606V11.4497V11.4388V11.4279V11.4171V11.4062V11.3954V11.3846V11.3738V11.363V11.3522V11.3415V11.3307V11.32V11.3092V11.2985V11.2878V11.2772V11.2665V11.2558V11.2452V11.2346V11.2239V11.2133V11.2028V11.1922V11.1816V11.1711V11.1606V11.15V11.1395V11.1291V11.1186V11.1081V11.0977V11.0873V11.0769V11.0665V11.0561V11.0457V11.0354V11.025V11.0147V11.0044V10.9941V10.9839V10.9736V10.9634V10.9532V10.943V10.9328V10.9226V10.9124V10.9023V10.8922V10.8821V10.872V10.8619V10.8519V10.8418V10.8318V10.8218V10.8118V10.8019V10.7919V10.782V10.7721V10.7622V10.7523V10.7424V10.7326V10.7228V10.7129V10.7032V10.6934V10.6836V10.6739V10.6642V10.6545V10.6448V10.6351V10.6255V10.6159V10.6063V10.5967V10.5871V10.5776V10.5681V10.5586V10.5491V10.5396V10.5302V10.5207V10.5113V10.5019V10.4926V10.4832V10.4739V10.4646V10.4553V10.446V10.4368V10.4276V10.4183V10.4092V10.4C17 9.84772 16.5523 9.4 16 9.4C15.4477 9.4 15 9.84772 15 10.4V10.4092V10.4183V10.4276V10.4368V10.446V10.4553V10.4646V10.4739V10.4832V10.4926V10.5019V10.5113V10.5207V10.5302V10.5396V10.5491V10.5586V10.5681V10.5776V10.5871V10.5967V10.6063V10.6159V10.6255V10.6351V10.6448V10.6545V10.6642V10.6739V10.6836V10.6934V10.7032V10.7129V10.7228V10.7326V10.7424V10.7523V10.7622V10.7721V10.782V10.7919V10.8019V10.8118V10.8218V10.8318V10.8418V10.8519V10.8619V10.872V10.8821V10.8922V10.9023V10.9124V10.9226V10.9328V10.943V10.9532V10.9634V10.9736V10.9839V10.9941V11.0044V11.0147V11.025V11.0354V11.0457V11.0561V11.0665V11.0769V11.0873V11.0977V11.1081V11.1186V11.1291V11.1395V11.15V11.1606V11.1711V11.1816V11.1922V11.2028V11.2133V11.2239V11.2346V11.2452V11.2558V11.2665V11.2772V11.2878V11.2985V11.3092V11.32V11.3307V11.3415V11.3522V11.363V11.3738V11.3846V11.3954V11.4062V11.4171V11.4279V11.4388V11.4497V11.4606V11.4715V11.4824V11.4933V11.5043V11.5152V11.5262V11.5372V11.5482V11.5592V11.5702V11.5812V11.5922V11.6033V11.6143V11.6254V11.6365V11.6476V11.6587V11.6698V11.6809V11.692V11.7032V11.7143V11.7255V11.7367V11.7479V11.7591V11.7703V11.7815V11.7927V11.804V11.8152V11.8265V11.8377V11.849V11.8603V11.8716V11.8829V11.8942V11.9055V11.9168V11.9282V11.9395V11.9509V11.9623V11.9736V11.985V11.9964V12.0078V12.0192V12.0306V12.0421V12.0535V12.0649V12.0764V12.0878V12.0993V12.1108V12.1223V12.1337V12.1452V12.1567V12.1683V12.1798V12.1913V12.2028V12.2144V12.2259V12.2375V12.249V12.2606V12.2722V12.2837V12.2953V12.3069V12.3185V12.3301V12.3417V12.3533V12.365V12.3766V12.3882V12.3999V12.4115V12.4231V12.4348V12.4465V12.4581V12.4698V12.4815V12.4932V12.5048V12.5165V12.5282V12.5399V12.5516V12.5633V12.575V12.5868V12.5985V12.6102V12.6219V12.6337V12.6454V12.6572V12.6689V12.6806V12.6924V12.7042V12.7159V12.7277V12.7394V12.7512V12.763V12.7748V12.7865V12.7983V12.8101V12.8219V12.8337V12.8455V12.8573V12.8691V12.8809V12.8927V12.9045V12.9163V12.9281V12.9399V12.9517V12.9635V12.9753V12.9871V12.999V13.0108V13.0226V13.0344V13.0462V13.0581V13.0699V13.0817V13.0935V13.1054V13.1172V13.129V13.1409V13.1527V13.1645V13.1763V13.1882V13.2V13.2118V13.2237V13.2355V13.2473V13.2591V13.271V13.2828V13.2946V13.3065V13.3183V13.3301V13.3419V13.3538V13.3656V13.3774V13.3892V13.401V13.4129V13.4247V13.4365V13.4483V13.4601V13.4719V13.4837V13.4955V13.5073V13.5191V13.5309V13.5427V13.5545V13.5663V13.5781V13.5858L8.70711 7.29289Z"
    fill="#2f9e44" />
</svg>