<svg xmlns="http://www.w3.org/2000/svg" fill="#aab1c7" class="sc-iBkjds ehIwfb">
  <g>
    <path
      d="M20.9543,12.0782 C20.3153,12.0782 19.7983,11.5602 19.7983,10.9222 C19.7983,10.2832 20.3153,9.7662 20.9543,9.7662 C21.5923,9.7662 22.1103,10.2832 22.1103,10.9222 C22.1103,11.5602 21.5923,12.0782 20.9543,12.0782 M16.0003,20.9222 C13.2863,20.9222 11.0783,18.7142 11.0783,16.0002 C11.0783,13.2852 13.2863,11.0772 16.0003,11.0772 C18.7143,11.0772 20.9223,13.2852 20.9223,16.0002 C20.9223,18.7142 18.7143,20.9222 16.0003,20.9222 M21.1933,8.8072 L10.8073,8.8072 C9.7043,8.8072 8.8073,9.7042 8.8073,10.8072 L8.8073,21.1922 C8.8073,22.2952 9.7043,23.1922 10.8073,23.1922 L21.1933,23.1922 C22.2963,23.1922 23.1933,22.2952 23.1933,21.1922 L23.1933,10.8072 C23.1933,9.7042 22.2963,8.8072 21.1933,8.8072" />
    <path
      d="M25.1931,21.1924 C25.1931,23.3984 23.3991,25.1924 21.1931,25.1924 L10.8071,25.1924 C8.6011,25.1924 6.8071,23.3984 6.8071,21.1924 L6.8071,10.8064 C6.8071,8.6004 8.6011,6.8064 10.8071,6.8064 L21.1931,6.8064 C23.3991,6.8064 25.1931,8.6004 25.1931,10.8064 L25.1931,21.1924 Z M16.0001,0.0004 C7.1631,0.0004 0.0001,7.1634 0.0001,16.0004 C0.0001,24.8374 7.1631,32.0004 16.0001,32.0004 C24.8371,32.0004 32.0001,24.8374 32.0001,16.0004 C32.0001,7.1634 24.8371,0.0004 16.0001,0.0004 L16.0001,0.0004 Z" />
    <path
      d="M16.0002,13.0772 C14.3892,13.0772 13.0782,14.3892 13.0782,16.0002 C13.0782,17.6112 14.3892,18.9222 16.0002,18.9222 C17.6112,18.9222 18.9222,17.6112 18.9222,16.0002 C18.9222,14.3892 17.6112,13.0772 16.0002,13.0772" />
  </g>
</svg>