<svg xmlns="http://www.w3.org/2000/svg" fill="#aab1c7" class="sc-iBkjds ehIwfb">
  <g>
    <path
      d="M16,0A16,16,0,1,0,32,16,16,16,0,0,0,16,0Zm1.29,21.43c-1.21-.1-1.72-.7-2.66-1.27-.53,2.73-1.16,5.35-3.05,6.72-.58-4.13.85-7.24,1.52-10.53-1.14-1.92.14-5.78,2.54-4.83,3,1.17-2.56,7.13,1.14,7.87,3.87.78,5.45-6.7,3-9.14-3.46-3.51-10.08-.08-9.27,5,.2,1.22,1.47,1.6.51,3.3-2.22-.5-2.88-2.24-2.79-4.57A7.46,7.46,0,0,1,15,7.08c4.17-.47,8.09,1.53,8.63,5.46C24.25,17,21.75,21.77,17.29,21.43Z" />
  </g>
</svg>