<svg xmlns="http://www.w3.org/2000/svg" fill="#aab1c7" class="sc-iBkjds ehIwfb">
  <g>
    <path
      d="M16,0A16,16,0,1,0,32,16,16,16,0,0,0,16,0Zm7.89,13.48c0,.16,0,.33,0,.49A10.88,10.88,0,0,1,7.16,23.14a9.08,9.08,0,0,0,.91.05,7.66,7.66,0,0,0,4.75-1.64A3.82,3.82,0,0,1,9.25,18.9,4.18,4.18,0,0,0,10,19a3.73,3.73,0,0,0,1-.14,3.83,3.83,0,0,1-3.07-3.75V15a3.73,3.73,0,0,0,1.73.48A3.83,3.83,0,0,1,8.46,10.4a10.82,10.82,0,0,0,7.88,4,3.57,3.57,0,0,1-.1-.87,3.83,3.83,0,0,1,6.62-2.62A7.84,7.84,0,0,0,25.29,10,3.85,3.85,0,0,1,23.6,12.1a7.7,7.7,0,0,0,2.2-.6A7.65,7.65,0,0,1,23.89,13.48Z" />
  </g>
</svg>